<svg xmlns="http://www.w3.org/2000/svg" viewBox="0 0 128 128"><path fill="#FF6C37" d="M64 0C28.7 0 0 28.7 0 64s28.7 64 64 64 64-28.7 64-64S99.3 0 64 0z"/><path fill="#FFFFFF" d="M89.7 31.9L68.1 53.5c-.6.6-1.6.6-2.2 0-.6-.6-.6-1.6 0-2.2l21.6-21.6c.6-.6 1.6-.6 2.2 0 .6.6.6 1.6 0 2.2zM47.3 74.7l10.4-10.4c.6-.6 1.6-.6 2.2 0 .6.6.6 1.6 0 2.2L49.5 76.9c-.6.6-1.6.6-2.2 0-.6-.6-.6-1.6 0-2.2zm20.8-20.8L78.5 43.5c.6-.6 1.6-.6 2.2 0 .6.6.6 1.6 0 2.2L70.3 56.1c-.6.6-1.6.6-2.2 0-.6-.6-.6-1.6 0-2.2z"/><path fill="#FF6C37" d="M85.9 66.1c-1.2 0-2.2-1-2.2-2.2V51.7c0-1.2 1-2.2 2.2-2.2s2.2 1 2.2 2.2v12.2c0 1.2-1 2.2-2.2 2.2zm-9.8-9.8H63.9c-1.2 0-2.2-1-2.2-2.2s1-2.2 2.2-2.2h12.2c1.2 0 2.2 1 2.2 2.2s-1 2.2-2.2 2.2z"/></svg>