<svg xmlns="http://www.w3.org/2000/svg" viewBox="0 0 128 128"><path fill="#00979D" d="M64 0C28.7 0 0 28.7 0 64s28.7 64 64 64 64-28.7 64-64S99.3 0 64 0zm0 120C33.1 120 8 94.9 8 64S33.1 8 64 8s56 25.1 56 56-25.1 56-56 56z"/><rect x="28" y="58" width="20" height="12" rx="6" fill="#FFFFFF"/><rect x="80" y="58" width="20" height="12" rx="6" fill="#FFFFFF"/><rect x="34" y="52" width="8" height="24" rx="4" fill="#FFFFFF"/><rect x="86" y="52" width="8" height="24" rx="4" fill="#FFFFFF"/><path fill="#FFFFFF" d="M52 50h24v28H52V50zm4 4v20h16V54H56z"/></svg>