<svg xmlns="http://www.w3.org/2000/svg" viewBox="0 0 128 128"><path fill="#2C2255" d="M64 2C29.9 2 2 29.9 2 64s27.9 62 62 62c4.3 0 8.5-.4 12.6-1.2 1.7-.3 2.9-1.8 2.9-3.6 0-2-1.6-3.6-3.6-3.6-.3 0-.6 0-.9.1-3.4.7-7 1-10.7 1-28.7 0-52-23.3-52-52S35.3 12 64 12s52 23.3 52 52c0 7.4-1.6 14.4-4.4 20.8-.8 1.9 0 4.1 1.9 4.9.5.2 1 .3 1.5.3 1.4 0 2.7-.8 3.3-2.2C121.1 81.1 123 72.7 123 64c0-34.1-27.9-62-62-62z"/><circle cx="64" cy="64" r="20" fill="#F79A00"/><path fill="#FFFFFF" d="M64 48c-8.8 0-16 7.2-16 16s7.2 16 16 16 16-7.2 16-16-7.2-16-16-16zm0 26c-5.5 0-10-4.5-10-10s4.5-10 10-10 10 4.5 10 10-4.5 10-10 10z"/></svg>