<svg xmlns="http://www.w3.org/2000/svg" viewBox="0 0 128 128"><path fill="#007ACC" d="M95.5 4.2L27.5 23.4c-1.4.4-2.5 1.6-2.8 3.1l-6.1 31.9c-.3 1.4.2 2.9 1.3 3.9l45.8 38.9c1.3 1.1 3.2 1.1 4.5 0l45.8-38.9c1.1-1 1.6-2.5 1.3-3.9l-6.1-31.9c-.3-1.5-1.4-2.7-2.8-3.1L95.5 4.2z"/><path fill="#FFFFFF" d="M27.3 23.6l68.2-19.4c.4-.1.9 0 1.2.3.3.3.4.8.3 1.2L91.1 37.1 27.3 23.6zM100.8 37.1L95 67.8c-.1.4-.4.7-.8.8L27.3 23.6l73.5 13.5z"/><path fill="#1BA1E2" d="M27.3 23.6L94.2 69.6c.4.3.6.8.6 1.3v31.7c0 .9-.7 1.6-1.6 1.6-.3 0-.6-.1-.8-.2L27.3 69.9c-.4-.3-.6-.8-.6-1.3V24.9c0-.9.7-1.6 1.6-1.6.3 0 .6.1.8.2l-1.8.1z"/></svg>